<svg width="16" height="16" viewBox="0 0 16 16" fill="none" xmlns="http://www.w3.org/2000/svg">
<path d="M1.53211 0.0366442C1.00128 0.138126 0.431424 0.583084 0.18943 1.09049C0.00988511 1.473 -0.0447589 1.88673 0.0372071 2.26534C0.126979 2.66736 0.271396 2.95619 0.517293 3.22161C1.71165 4.50574 3.81545 3.67828 3.81545 1.92186C3.81545 0.696275 2.73428 -0.193641 1.53211 0.0366442Z" fill="#C0FFF2"/>
<path d="M11.1923 5.14243C11.0089 5.18146 10.7747 5.24391 10.6654 5.27904C10.0136 5.50542 9.35783 6.00503 9.00654 6.55537L8.85042 6.78956L8.84261 6.05577L8.8309 5.31807L7.24232 5.30636L5.64984 5.29856V10.6459V15.9932H7.30868H8.96751V13.1322C8.96751 10.2829 8.98703 9.81839 9.10802 9.33831C9.25244 8.77626 9.59592 8.3274 10.0292 8.12833C10.4741 7.92537 11.1884 7.90195 11.6373 8.06979C12.0705 8.23372 12.3945 8.63574 12.535 9.18609C12.6521 9.64275 12.6755 10.2751 12.6755 13.1126V15.9541H14.3343H15.9932V12.8394C15.9932 9.61933 15.9697 8.90896 15.8331 8.14785C15.5131 6.33289 14.5919 5.37272 12.9214 5.12292C12.3945 5.04485 11.6099 5.05266 11.1923 5.14243Z" fill="#C0FFF2"/>
<path d="M0.263489 10.6459V15.9932H1.92232H3.58116V10.6459V5.29856H1.92232H0.263489V10.6459Z" fill="#C0FFF2"/>
</svg>
