<svg width="98" height="27" viewBox="0 0 98 27" fill="none" xmlns="http://www.w3.org/2000/svg">
<path d="M0.867951 23.4139C0.599337 23.4139 0.342825 23.2891 0.177315 23.0714C-0.0147009 22.8191 -0.0537204 22.4822 0.0752643 22.1925C0.334486 21.6113 2.64744 16.4717 4.05354 15.0287C4.13515 14.945 4.21926 14.8646 4.30546 14.788C4.21906 14.7114 4.13515 14.6313 4.05354 14.5474C2.64744 13.1043 0.334486 7.96477 0.0752643 7.3835C-0.0537204 7.09402 -0.0147009 6.75695 0.177315 6.50461C0.369122 6.25228 0.683445 6.12434 0.996932 6.17172C1.06831 6.18236 2.76599 6.43909 4.6586 6.8705C8.25723 7.69095 9.25279 8.38073 9.68879 8.82821C10.8171 9.98636 10.939 13.3817 10.939 14.788C10.939 16.1941 10.8171 19.5897 9.68879 20.7478C9.25279 21.1953 8.25723 21.8849 4.6586 22.7056C2.76619 23.137 1.06831 23.3937 0.996932 23.4043C0.953728 23.4108 0.910737 23.4139 0.867951 23.4139ZM2.34564 8.15532C3.22641 10.001 4.53338 12.5527 5.29685 13.3362C5.57486 13.6215 5.89523 13.8398 6.24921 13.9853C6.57459 14.1191 6.78727 14.4361 6.78727 14.788C6.78727 15.1399 6.5748 15.4569 6.24921 15.5907C5.89523 15.7362 5.57486 15.9545 5.29685 16.2398C4.53338 17.0233 3.22641 19.5749 2.34564 21.4205C5.91046 20.7685 8.03307 19.9593 8.44528 19.5365C8.75981 19.2136 9.20291 17.5268 9.20291 14.788C9.20291 12.0493 8.75981 10.3625 8.44528 10.0396C8.03286 9.61632 5.90984 8.80692 2.34564 8.15532Z" fill="#080a0b"/>
<path d="M22.1593 23.4139C22.1163 23.4139 22.0735 23.4108 22.0303 23.4043C21.9589 23.3937 20.2613 23.137 18.3686 22.7056C14.77 21.8851 13.7744 21.1953 13.3384 20.7478C12.2101 19.5897 12.0883 16.1941 12.0883 14.788C12.0883 13.3819 12.2101 9.98636 13.3384 8.82821C13.7744 8.38073 14.77 7.69116 18.3686 6.8705C20.2613 6.43888 21.9589 6.18236 22.0303 6.17172C22.3446 6.12434 22.6579 6.25228 22.8499 6.50461C23.0417 6.75695 23.081 7.09381 22.9518 7.3835C22.6928 7.96477 20.3796 13.1043 18.9735 14.5474C18.8919 14.6311 18.8078 14.7112 18.7216 14.788C18.808 14.8646 18.8919 14.9448 18.9735 15.0287C20.3796 16.4717 22.6928 21.6113 22.9518 22.1925C23.0808 22.482 23.0417 22.8191 22.8499 23.0714C22.6844 23.2891 22.4277 23.4139 22.1593 23.4139ZM20.6816 8.15554C17.1168 8.80777 14.994 9.61674 14.582 10.0398C14.2674 10.3627 13.8243 12.0493 13.8243 14.7882C13.8243 17.527 14.2674 19.2138 14.582 19.5367C14.9942 19.9595 17.1168 20.7687 20.6816 21.4207C19.8008 19.5753 18.4939 17.0235 17.7304 16.24C17.4526 15.9547 17.1322 15.7364 16.778 15.5909C16.4527 15.4572 16.24 15.1401 16.24 14.7882C16.24 14.4363 16.4524 14.1193 16.778 13.9855C17.132 13.84 17.4524 13.6217 17.7304 13.3364C18.4941 12.5523 19.801 10.0008 20.6816 8.15554Z" fill="#080a0b"/>
<path d="M11.5136 7.08706C9.55964 7.08706 7.97009 5.49751 7.97009 3.54354C7.97009 1.58956 9.55985 0 11.5136 0C13.4676 0 15.0572 1.58956 15.0572 3.54354C15.0569 5.49751 13.4674 7.08706 11.5136 7.08706ZM11.5136 1.73587C10.5168 1.73587 9.70575 2.54672 9.70575 3.54354C9.70575 4.54035 10.5168 5.35119 11.5136 5.35119C12.5104 5.35119 13.3213 4.54035 13.3213 3.54354C13.3211 2.54672 12.5102 1.73587 11.5136 1.73587Z" fill="#080a0b"/>
<path d="M35.6833 20.8945C35.9694 21.8792 36.4281 22.3715 37.0593 22.3715C37.9767 22.3715 38.7804 21.9213 39.4705 21.0207C40.3121 19.8509 41.12 18.0078 41.8943 15.4914C42.6265 13.1097 42.8958 11.1235 42.7022 9.53291C42.6097 8.80914 42.4245 8.24106 42.1468 7.82867C41.8691 7.40787 41.5114 7.19747 41.0737 7.19747C40.1227 7.19747 39.2769 7.67719 38.5363 8.63661C37.6358 9.83168 36.8068 11.7421 36.0494 14.3679C35.3004 16.9853 35.1783 19.1608 35.6833 20.8945ZM33.2595 18.395C33.2595 16.0721 33.8065 13.6357 34.9006 11.0857C36.1041 8.30839 37.5601 6.46949 39.2685 5.56898C39.8913 5.24076 40.5309 5.07664 41.1874 5.07664C41.8438 5.07664 42.5886 5.3165 43.4218 5.79621C43.9688 6.12444 44.3434 6.64623 44.5453 7.36159C44.7473 8.07695 44.8483 9.12053 44.8483 10.4923C44.8483 11.8557 44.5453 13.6862 43.9394 15.9838C42.879 20.0319 41.2379 22.5861 39.016 23.6465C38.3596 23.9663 37.6653 24.1262 36.9331 24.1262C36.3524 24.1262 35.7506 23.9621 35.1278 23.6339C33.8823 22.9775 33.2595 21.2311 33.2595 18.395ZM48.4595 21.5636C50.0249 18.963 51.3504 15.5251 52.4361 11.2498C52.5202 10.8879 52.7643 10.7238 53.1683 10.7574L53.8878 10.8206C54.0898 10.8458 54.2413 10.9173 54.3423 11.0352C54.4517 11.153 54.4812 11.2961 54.4307 11.4644C53.0589 16.0763 51.4893 19.7625 49.7219 22.523C49.0655 23.5329 48.5058 24.0252 48.0429 24L47.3234 23.9495C47.0961 23.9327 46.911 23.8191 46.7679 23.6087C46.6332 23.3983 46.5785 23.0911 46.6038 22.6871C46.7974 19.5479 46.7679 15.9249 46.5154 11.8179C46.4733 11.1867 46.6837 10.8711 47.1466 10.8711H47.8662C48.2449 10.8711 48.4511 11.0688 48.4848 11.4644C48.7372 15.2432 48.7288 18.6096 48.4595 21.5636ZM58.4318 9.44455C58.1288 9.44455 57.8637 9.32251 57.6364 9.07845C57.4092 8.82597 57.2956 8.53141 57.2956 8.19477C57.2956 7.84971 57.4176 7.55515 57.6617 7.31109C57.9058 7.05861 58.2045 6.93237 58.558 6.93237H58.7978C59.084 6.93237 59.3491 7.06282 59.5932 7.32372C59.8372 7.58461 59.9593 7.88338 59.9593 8.22002C59.9593 8.54824 59.8288 8.83439 59.5679 9.07845C59.3154 9.32251 59.004 9.44455 58.6337 9.44455H58.4318ZM59.0251 11.4139L55.8943 23.4319C55.7933 23.8106 55.5367 24 55.1243 24H54.3668C53.8955 24 53.7062 23.8022 53.7987 23.4067L56.9547 11.3886C57.0473 11.0436 57.2914 10.8711 57.6869 10.8711H58.5327C58.76 10.8711 58.9115 10.9131 58.9872 10.9973C59.063 11.073 59.0756 11.2119 59.0251 11.4139ZM63.3936 14.3427C64.5129 12.5248 65.3798 11.4097 65.9941 10.9973C66.1961 10.8542 66.558 10.7827 67.0798 10.7827H67.3323C67.8288 10.7827 68.0013 10.9763 67.8499 11.3634C67.7741 11.5738 67.5637 11.8347 67.2187 12.1461C66.8736 12.4491 66.4149 12.9624 65.8426 13.6862C65.2704 14.41 64.9842 14.8813 64.9842 15.1001C64.9842 15.5546 65.1988 15.9796 65.628 16.3751C65.729 16.4593 65.7585 16.5518 65.7164 16.6528C65.6827 16.7538 65.5944 16.817 65.4513 16.8422L64.4666 17.0189C64.1889 17.061 63.9785 17.0316 63.8354 16.9306C63.6924 16.8212 63.5114 16.5603 63.2926 16.1479L63.078 15.7565L61.0834 23.4319C60.9824 23.8106 60.7215 24 60.3007 24H59.5559C59.0846 24 58.8952 23.8022 58.9878 23.4067L62.1438 11.3886C62.2364 11.0436 62.4763 10.8711 62.8634 10.8711H63.6587C63.8859 10.8711 64.0374 10.9131 64.1132 10.9973C64.1889 11.073 64.2015 11.2119 64.151 11.4139L63.3936 14.3427ZM70.5934 21.2858C71.7801 19.4175 72.4029 17.3556 72.4618 15.1001C72.487 14.0902 72.4323 13.4127 72.2977 13.0676C72.1714 12.7226 71.9147 12.5458 71.5276 12.5374C71.1405 12.5206 70.787 12.7015 70.4672 13.0803C70.1558 13.4506 69.8528 13.9429 69.5583 14.5573C68.7756 16.1731 68.3548 17.9868 68.2959 19.9982C68.2622 21.5552 68.5315 22.3547 69.1038 22.3968C69.6088 22.4136 70.1053 22.0433 70.5934 21.2858ZM66.2003 20.2507C66.2844 17.9279 66.7642 15.9291 67.6394 14.2543C68.0181 13.5137 68.3295 12.9793 68.5736 12.651C68.8177 12.3144 69.1122 11.982 69.4573 11.6537C70.1726 10.972 71.0353 10.6396 72.0452 10.6564C72.912 10.6985 73.5853 11.132 74.065 11.9567C74.4185 12.5206 74.57 13.4632 74.5195 14.7845C74.4774 16.0974 74.2544 17.385 73.8504 18.6474C73.4549 19.9014 73.0088 20.9492 72.5123 21.7908C71.5192 23.4488 70.2526 24.2525 68.7125 24.202C68.1486 24.1767 67.6394 23.9369 67.185 23.4824C66.882 23.1963 66.6337 22.7755 66.4401 22.22C66.255 21.6561 66.175 20.9997 66.2003 20.2507ZM79.2614 21.2858C80.4481 19.4175 81.0708 17.3556 81.1298 15.1001C81.155 14.0902 81.1003 13.4127 80.9656 13.0676C80.8394 12.7226 80.5827 12.5458 80.1956 12.5374C79.8084 12.5206 79.455 12.7015 79.1352 13.0803C78.8238 13.4506 78.5208 13.9429 78.2262 14.5573C77.4435 16.1731 77.0227 17.9868 76.9638 19.9982C76.9302 21.5552 77.1995 22.3547 77.7718 22.3968C78.2767 22.4136 78.7733 22.0433 79.2614 21.2858ZM74.8683 20.2507C74.9524 17.9279 75.4321 15.9291 76.3074 14.2543C76.6861 13.5137 76.9975 12.9793 77.2416 12.651C77.4856 12.3144 77.7802 11.982 78.1252 11.6537C78.8406 10.972 79.7032 10.6396 80.7132 10.6564C81.58 10.6985 82.2533 11.132 82.733 11.9567C83.0865 12.5206 83.238 13.4632 83.1875 14.7845C83.1454 16.0974 82.9224 17.385 82.5184 18.6474C82.1228 19.9014 81.6768 20.9492 81.1802 21.7908C80.1872 23.4488 78.9206 24.2525 77.3804 24.202C76.8166 24.1767 76.3074 23.9369 75.8529 23.4824C75.5499 23.1963 75.3017 22.7755 75.1081 22.22C74.923 21.6561 74.843 20.9997 74.8683 20.2507ZM89.9113 6.88187C89.9113 6.88187 89.5705 8.2116 88.8888 10.8711H90.2522C90.4458 10.8711 90.572 10.9131 90.6309 10.9973C90.6898 11.0815 90.6898 11.2287 90.6309 11.4391L90.4542 12.1082C90.3448 12.4869 90.1217 12.6763 89.7851 12.6763H88.4343L85.6949 23.4319C85.5939 23.8106 85.3372 24 84.9249 24H84.4325C84.1548 24 83.957 23.92 83.8392 23.7601C83.7298 23.6002 83.7003 23.4025 83.7508 23.1668L86.4271 12.6763H85.4172C85.2405 12.6763 85.1226 12.6342 85.0637 12.55C85.0132 12.4575 85.0174 12.2934 85.0763 12.0577L85.2783 11.3634C85.3709 11.0352 85.5603 10.8711 85.8464 10.8711H86.8942L87.9167 6.85663C88.0177 6.47791 88.2786 6.28855 88.6994 6.28855H89.3433C89.8146 6.28855 90.0039 6.48632 89.9113 6.88187Z" fill="#080a0b"/>
</svg>
