<svg width="36" height="35" viewBox="0 0 36 35" fill="none" xmlns="http://www.w3.org/2000/svg">
<path d="M15.5563 0.125782C10.9267 0.898941 7.09816 3.69349 4.99293 7.80148C4.0521 9.64589 3.59566 11.304 3.4373 13.5303L3.34415 14.8438L2.8877 15.3095C2.43126 15.7846 2.03071 16.4832 1.91893 16.9956C1.86303 17.2377 1.7792 17.3216 1.44385 17.4427C0.987408 17.6197 0.335346 18.2717 0.130412 18.7561C0.0372607 18.989 0 19.4734 0 20.4794C0 21.709 0.0279455 21.9326 0.195619 22.2959C0.428498 22.7803 1.08987 23.4044 1.52769 23.5534C1.7792 23.628 1.85372 23.7304 1.94687 24.0471C2.26359 25.1091 3.12058 26.0778 4.08004 26.4505C4.52717 26.6274 4.84389 26.6647 6.08281 26.702C7.6757 26.7392 7.97379 26.6833 8.2905 26.2735C8.46749 26.0499 8.4768 25.8729 8.4768 20.4608V14.8717L8.16009 14.555C7.93653 14.3314 7.75954 14.2383 7.5546 14.2383C7.27515 14.2383 7.26583 14.229 7.26583 13.7911C7.26583 13.1298 7.50803 11.7604 7.77817 10.95C8.67242 8.20204 10.7404 5.86393 13.358 4.63433C17.6057 2.65019 22.6731 3.71212 25.7378 7.23326C27.34 9.06835 28.0852 10.9034 28.374 13.6514L28.4299 14.2383H28.1598C27.7219 14.2383 27.3121 14.555 27.2003 14.9742C27.1351 15.235 27.1071 17.0701 27.1258 20.6844C27.1537 26.5436 27.1351 26.3014 27.7219 26.5809C27.9176 26.674 28.3088 26.7206 28.877 26.7206H29.7433L29.6968 27.9968C29.6502 29.0214 29.6036 29.394 29.4359 29.8412C29.0261 30.9217 28.3461 31.6669 27.3307 32.142C26.6041 32.4867 25.9148 32.5892 24.3405 32.5892H23.1016L22.9246 32.2445C22.4775 31.3595 22.0304 31.1919 20.1953 31.1919C18.5651 31.1919 18.2112 31.2943 17.7175 31.8905C17.1213 32.6264 17.1306 33.6231 17.7547 34.3497C18.267 34.9459 18.6303 35.0297 20.3816 34.9925C21.872 34.9645 21.872 34.9645 22.2819 34.6851C22.5055 34.5267 22.7756 34.2193 22.8967 34.0051L23.1109 33.6138H24.7504C26.5669 33.6138 27.163 33.5114 28.048 33.0456C29.1099 32.4774 30.0135 31.4434 30.4699 30.279C30.6469 29.8412 30.6842 29.4965 30.7307 28.2297L30.7866 26.7113L31.2524 26.5529C31.951 26.3107 32.5565 25.9288 32.9198 25.4817C33.2924 25.0345 33.7209 24.1682 33.7209 23.8702C33.7209 23.7211 33.8327 23.628 34.1587 23.5069C34.7363 23.2833 35.3324 22.6778 35.5187 22.1096C35.733 21.4948 35.7423 19.4827 35.5281 18.8772C35.3324 18.2904 34.8294 17.7408 34.2426 17.4613C33.842 17.275 33.7302 17.1725 33.693 16.949C33.5812 16.418 33.2086 15.7753 32.7335 15.2909L32.2584 14.8158L32.2025 13.6607C32.0349 10.1582 30.6469 6.94449 28.1877 4.39213C25.9614 2.07265 23.1389 0.591541 20.0276 0.125782C18.9564 -0.0418892 16.5251 -0.0418892 15.5563 0.125782ZM20.1208 1.26223C25.0485 2.06334 29.2683 5.89187 30.6469 10.801C30.8984 11.7232 31.1127 13.0366 31.1127 13.7352V14.3035L30.3954 14.2662C29.9948 14.2383 29.6129 14.2103 29.557 14.1917C29.4732 14.1637 29.4359 13.9495 29.4359 13.5583C29.4359 12.31 28.9422 10.3538 28.3088 9.09629C27.4518 7.39161 25.8682 5.55653 24.4057 4.57843C22.9992 3.6376 21.3224 2.9576 19.7482 2.67814C18.6397 2.48252 16.6183 2.5291 15.4632 2.77129C11.3738 3.62829 8.07625 6.56256 6.76281 10.5215C6.4461 11.4717 6.14801 13.0925 6.14801 13.8563V14.2383H5.5239C5.16992 14.2383 4.788 14.2662 4.6669 14.3035L4.45265 14.3594L4.51786 13.5769C4.84389 9.68315 6.56719 6.339 9.43627 4.03815C12.4916 1.57895 16.1898 0.619488 20.1208 1.26223ZM7.35898 20.4794V25.6028H6.12938C5.03019 25.6028 4.83457 25.5748 4.42471 25.3792C3.84717 25.1184 3.39072 24.6619 3.1299 24.1123C2.94359 23.7118 2.93428 23.5628 2.93428 20.526C2.93428 18.16 2.96222 17.275 3.05538 17.0142C3.27894 16.3994 3.67949 15.9523 4.29429 15.6449C4.8532 15.3654 4.90909 15.3561 6.12007 15.3561H7.35898V20.4794ZM31.2058 15.5517C31.7182 15.7846 32.1839 16.2131 32.4447 16.7068C32.6404 17.0608 32.6497 17.2005 32.6776 20.2745C32.7056 22.9759 32.6869 23.5441 32.5565 23.9167C32.3702 24.4756 31.9604 24.9787 31.4108 25.3047C30.9916 25.5469 30.8984 25.5562 29.6036 25.5841L28.225 25.6214V20.4887V15.3561H29.5105C30.591 15.3561 30.8518 15.3933 31.2058 15.5517ZM1.86303 20.4794C1.86303 21.5507 1.82577 22.4356 1.78851 22.4356C1.63015 22.4356 1.20166 21.8953 1.11782 21.5879C0.996723 21.1781 0.996723 19.7808 1.11782 19.3523C1.21097 19.0076 1.59289 18.5232 1.76988 18.5232C1.82577 18.5232 1.86303 19.1753 1.86303 20.4794ZM34.1587 18.7282C34.5127 19.1194 34.5593 19.3337 34.5593 20.4794C34.5593 21.1315 34.5127 21.6997 34.4568 21.8115C34.3171 22.0723 33.9911 22.4356 33.8886 22.4356C33.8513 22.4356 33.8141 21.5507 33.8141 20.4794C33.8141 19.3989 33.8513 18.5232 33.8886 18.5232C33.9352 18.5232 34.0563 18.6164 34.1587 18.7282ZM21.7416 32.5053C21.9372 32.6544 21.9838 32.7755 21.9838 33.1015C21.9838 33.4275 21.9372 33.5486 21.7416 33.6977C21.518 33.8746 21.369 33.8933 20.1953 33.8933H18.8912L18.621 33.6231C18.4627 33.4555 18.3509 33.2505 18.3509 33.1015C18.3509 32.9524 18.4627 32.7475 18.621 32.5798L18.8912 32.3097H20.1953C21.369 32.3097 21.518 32.3283 21.7416 32.5053Z" fill="#3C4433"/>
</svg>
